<mxfile host="app.diagrams.net" modified="2023-06-20T12:16:57.157Z" agent="Mozilla/5.0 (Windows NT 10.0; Win64; x64) AppleWebKit/537.36 (KHTML, like Gecko) Chrome/114.0.0.0 Safari/537.36 Edg/114.0.1823.51" version="21.2.9" etag="KdCXdzajaA1VSuJil_Jc" type="github">
  <diagram name="Seite-1" id="4GsviYzze5BB5Kqp0m_m">
    <mxGraphModel>
      <root>
        <mxCell id="0" />
        <mxCell id="1" parent="0" />
      </root>
    </mxGraphModel>
  </diagram>
</mxfile>
